HIERARCHY
ROOT joint_Root
{
	OFFSET 0.0 0.0 0.0
	CHANNELS 6 Xposition Yposition Zposition Zrotation Xrotation Yrotation 
	JOINT Hips
	{
		OFFSET -0.726466 93.3139 -2.00062
		CHANNELS 6 Xposition Yposition Zposition Zrotation Xrotation Yrotation 
		JOINT Spine
		{
			OFFSET 15.7357 0.0 0.0
			CHANNELS 6 Xposition Yposition Zposition Zrotation Xrotation Yrotation 
			JOINT Chest
			{
				OFFSET 8.98455 -0.406207 0.0
				CHANNELS 6 Xposition Yposition Zposition Zrotation Xrotation Yrotation 
				JOINT Neck
				{
					OFFSET 16.3773 0.0 0.0
					CHANNELS 6 Xposition Yposition Zposition Zrotation Xrotation Yrotation 
					JOINT Head
					{
						OFFSET 6.45672 0.0 0.0
						CHANNELS 6 Xposition Yposition Zposition Zrotation Xrotation Yrotation 
						End Site
						{
							OFFSET 0.0 0.0 0.0
						}
					}
				}
				JOINT Shoulder_L
				{
					OFFSET 12.9942 -0.242716 4.98039
					CHANNELS 6 Xposition Yposition Zposition Zrotation Xrotation Yrotation 
					JOINT UpperArm_L
					{
						OFFSET 5.34809 0.0 0.0
						CHANNELS 6 Xposition Yposition Zposition Zrotation Xrotation Yrotation 
						JOINT LowerArm_L
						{
							OFFSET 24.3286 1.87007e-05 0.0
							CHANNELS 6 Xposition Yposition Zposition Zrotation Xrotation Yrotation 
							JOINT Hand_L
							{
								OFFSET 22.2916 0.0 0.0
								CHANNELS 6 Xposition Yposition Zposition Zrotation Xrotation Yrotation 
								End Site
								{
									OFFSET 0.0 0.0 0.0
								}
							}
						}
					}
				}
				JOINT Shoulder_R
				{
					OFFSET 12.9945 -0.242716 -4.98039
					CHANNELS 6 Xposition Yposition Zposition Zrotation Xrotation Yrotation 
					JOINT UpperArm_R
					{
						OFFSET -5.34813 0.0 0.0
						CHANNELS 6 Xposition Yposition Zposition Zrotation Xrotation Yrotation 
						JOINT LowerArm_R
						{
							OFFSET -24.3289 0.000322201 0.0
							CHANNELS 6 Xposition Yposition Zposition Zrotation Xrotation Yrotation 
							JOINT Hand_R
							{
								OFFSET -22.2915 -0.000108084 0.0
								CHANNELS 6 Xposition Yposition Zposition Zrotation Xrotation Yrotation 
								End Site
								{
									OFFSET 0.0 0.0 0.0
								}
							}
						}
					}
				}
			}
		}
		JOINT UpperLeg_L
		{
			OFFSET -2.19248 -6.46944 0.0
			CHANNELS 6 Xposition Yposition Zposition Zrotation Xrotation Yrotation 
			JOINT LowerLeg_L
			{
				OFFSET 39.0811 0.0 -1.23785e-05
				CHANNELS 6 Xposition Yposition Zposition Zrotation Xrotation Yrotation 
				JOINT Foot_L
				{
					OFFSET 40.9854 0.0 -1.26872e-05
					CHANNELS 6 Xposition Yposition Zposition Zrotation Xrotation Yrotation 
					JOINT Toes_L
					{
						OFFSET 11.7543 0.0 0.0
						CHANNELS 6 Xposition Yposition Zposition Zrotation Xrotation Yrotation 
						End Site
						{
							OFFSET 0.0 0.0 0.0
						}
					}
				}
			}
		}
		JOINT UpperLeg_R
		{
			OFFSET -2.19251 6.46944 0.0
			CHANNELS 6 Xposition Yposition Zposition Zrotation Xrotation Yrotation 
			JOINT LowerLeg_R
			{
				OFFSET -39.0811 -0.00228153 -0.0401928
				CHANNELS 6 Xposition Yposition Zposition Zrotation Xrotation Yrotation 
				JOINT Foot_R
				{
					OFFSET -40.9854 0.0 0.0
					CHANNELS 6 Xposition Yposition Zposition Zrotation Xrotation Yrotation 
					JOINT Toes_R
					{
						OFFSET -11.7543 0.0 0.0
						CHANNELS 6 Xposition Yposition Zposition Zrotation Xrotation Yrotation 
						End Site
						{
							OFFSET 0.0 0.0 0.0
						}
					}
				}
			}
		}
	}
}
MOTION
Frames:	4
Frame Time:	0.0333333
0.000000 0.000000 0.000000 0.000000 0.000000 -0.000000 -0.578001 92.269500 -2.152270 88.108300 -0.925804 5.605990 15.735700 0.000005 -0.000001 83.283500 85.121200 -82.877800 8.984550 -0.406207 -0.000000 1.929150 -1.161140 0.830100 16.377300 -0.000001 -0.000001 2.264520 -2.280970 0.623301 6.456720 -0.000001 -0.000000 5.799230 -2.253150 -0.950000 12.994200 -0.242716 4.980390 -90.011000 0.036826 -73.356200 5.348090 -0.000007 -0.000001 -65.160700 40.009000 -19.021900 24.328600 0.000019 0.000005 1.894860 5.320100 -19.638500 22.291600 -0.000001 0.000005 1.197270 5.454490 -4.780510 12.994500 -0.242716 -4.980390 88.241300 6.082330 -73.839500 -5.348130 -0.000001 -0.000004 -64.232000 39.449100 -18.228700 -24.328900 0.000322 -0.000009 3.096000 9.274900 -18.557000 -22.291500 -0.000108 -0.000004 2.619510 5.345780 -1.247680 -2.192480 -6.469440 -0.000000 -175.643000 -6.453740 -2.244500 39.081100 -0.000007 -0.000012 -0.096659 0.220498 23.671200 40.985400 -0.000006 -0.000013 -0.172497 2.721840 -66.015700 11.754300 -0.000000 0.000003 -0.000033 -0.000392 -16.592900 -2.192510 6.469440 -0.000001 179.236000 14.925100 -179.059000 -39.081100 -0.002282 -0.040193 -0.027808 0.084810 20.155500 -40.985400 0.000008 0.000006 3.459940 6.313850 -65.838200 -11.754300 -0.000006 -0.000006 -0.006198 -0.072627 -19.529100
0.000000 0.000000 0.000000 0.000000 0.000000 -0.000000 -0.590373 92.256400 -2.185580 88.104500 -0.751464 5.797730 15.735700 0.000005 -0.000001 82.758300 85.084300 -82.356000 8.984550 -0.406207 -0.000000 1.991930 -1.258760 0.825790 16.377300 -0.000001 -0.000001 2.276550 -2.314670 0.597463 6.456720 -0.000001 -0.000000 5.776060 -2.189880 -0.839816 12.994200 -0.242716 4.980390 -90.040900 0.139005 -73.619900 5.348090 -0.000007 -0.000001 -62.750000 38.856700 -21.663600 24.328600 0.000019 0.000005 2.925740 8.358290 -19.370500 22.291600 -0.000001 0.000005 -3.348500 5.396610 -2.796130 12.994500 -0.242716 -4.980390 88.247100 6.082320 -73.889700 -5.348130 -0.000001 -0.000004 -62.802600 38.299600 -19.814600 -24.328900 0.000322 -0.000009 3.570180 10.037600 -19.700500 -22.291500 -0.000108 -0.000004 -0.535117 5.322130 -0.545876 -2.192480 -6.469440 -0.000000 -175.614000 -6.378360 -2.154130 39.081100 -0.000007 -0.000012 -0.097570 0.221404 23.782700 40.985400 -0.000006 -0.000013 -0.152095 2.830520 -66.035500 11.754300 -0.000000 0.000003 -0.000039 -0.000456 -16.595300 -2.192510 6.469440 -0.000001 179.200000 14.980100 -178.909000 -39.081100 -0.002282 -0.040193 -0.028175 0.085393 20.245500 -40.985400 0.000008 0.000006 3.421860 6.188640 -65.873900 -11.754300 -0.000006 -0.000006 -0.006103 -0.071765 -19.493900
0.000000 0.000000 0.000000 0.000000 0.000000 -0.000000 -0.596413 92.242900 -2.254030 88.135200 -0.621037 5.977050 15.735700 0.000005 -0.000001 82.341100 85.075000 -81.950900 8.984550 -0.406207 -0.000000 2.001190 -1.331510 0.802844 16.377300 -0.000001 -0.000001 2.365760 -2.341210 0.616284 6.456720 -0.000001 -0.000000 5.830260 -2.129490 -0.862861 12.994200 -0.242716 4.980390 -90.063900 0.221055 -73.876500 5.348090 -0.000007 -0.000001 -59.998200 36.334700 -24.584000 24.328600 0.000019 0.000005 4.036290 11.087900 -20.148200 22.291600 -0.000001 0.000005 -7.986160 5.331230 -0.806972 12.994500 -0.242716 -4.980390 88.255500 6.024220 -73.817300 -5.348130 -0.000001 -0.000004 -60.516500 36.770200 -22.377000 -24.328900 0.000322 -0.000009 4.074050 10.448600 -21.446500 -22.291500 -0.000108 -0.000004 -3.906710 5.280430 0.623506 -2.192480 -6.469440 -0.000000 -175.613000 -6.384600 -2.102570 39.081100 -0.000007 -0.000012 -0.098603 0.222605 23.891000 40.985400 -0.000006 -0.000013 -0.127409 2.955450 -66.021700 11.754300 -0.000000 0.000003 -0.000032 -0.000381 -16.592400 -2.192510 6.469440 -0.000001 179.145000 14.957800 -178.846000 -39.081100 -0.002282 -0.040193 -0.030741 0.091583 20.401000 -40.985400 0.000008 0.000006 3.355650 6.052960 -65.899700 -11.754300 -0.000006 -0.000006 -0.006325 -0.073758 -19.575200
0.000000 0.000000 0.000000 0.000000 0.000000 -0.000000 -0.611536 92.241100 -2.346000 88.134600 -0.601568 6.138060 15.735700 0.000005 -0.000001 81.950000 85.103100 -81.564200 8.984550 -0.406207 -0.000000 1.936610 -1.390240 0.794297 16.377300 -0.000001 -0.000001 2.578860 -2.378420 0.594490 6.456720 -0.000001 -0.000000 5.967790 -2.142660 -0.839415 12.994200 -0.242716 4.980390 -90.041200 0.144380 -74.070300 5.348090 -0.000007 -0.000001 -57.305600 32.522800 -27.518200 24.328600 0.000019 0.000005 4.497140 11.442500 -21.626900 22.291600 -0.000001 0.000005 -9.798470 5.285730 0.468468 12.994500 -0.242716 -4.980390 88.272900 5.924680 -73.716200 -5.348130 -0.000001 -0.000004 -57.582900 34.477300 -25.813600 -24.328900 0.000322 -0.000009 4.697110 10.830600 -23.622200 -22.291500 -0.000108 -0.000004 -6.519450 5.255880 1.278380 -2.192480 -6.469440 -0.000000 -175.583000 -6.417250 -2.022120 39.081100 -0.000007 -0.000012 -0.097734 0.220179 23.935700 40.985400 -0.000006 -0.000013 -0.115644 3.031640 -65.985300 11.754300 -0.000000 0.000003 -0.000038 -0.000450 -16.595100 -2.192510 6.469440 -0.000001 179.133000 14.925100 -178.768000 -39.081100 -0.002282 -0.040193 -0.031024 0.092093 20.452100 -40.985400 0.000008 0.000006 3.306230 6.007320 -65.859900 -11.754300 -0.000006 -0.000006 -0.006124 -0.071955 -19.501700
